<?xml version="1.0" standalone="no"?>
<!DOCTYPE svg PUBLIC "-//W3C//DTD SVG 20010904//EN"
 "http://www.w3.org/TR/2001/REC-SVG-20010904/DTD/svg10.dtd">
<svg version="1.0" xmlns="http://www.w3.org/2000/svg"
 width="2000.000000pt" height="1125.000000pt" viewBox="0 0 2000.000000 1125.000000"
 preserveAspectRatio="xMidYMid meet">

<g transform="translate(0.000000,1125.000000) scale(0.100000,-0.100000)"
fill="#000000" stroke="none">
<path d="M11600 7901 l0 -288 153 -58 c83 -32 314 -120 512 -195 198 -75 381
-145 408 -155 26 -10 47 -20 47 -24 0 -3 -33 -18 -73 -33 -39 -15 -232 -86
-427 -158 -195 -72 -413 -153 -485 -180 l-130 -48 -3 -297 c-2 -280 -1 -297
15 -293 10 3 441 175 958 383 517 208 946 380 953 382 10 4 12 59 10 245 l-3
240 -100 40 c-55 22 -486 194 -957 384 -471 189 -861 344 -867 344 -8 0 -11
-90 -11 -289z"/>
<path d="M12563 5898 l-313 -131 0 -208 0 -209 -130 0 -130 0 0 -235 0 -235
129 0 130 0 3 -647 c4 -628 4 -650 25 -725 32 -112 70 -184 137 -255 93 -101
241 -164 425 -183 136 -13 338 0 454 31 l37 10 0 245 0 245 -22 -7 c-96 -31
-242 -33 -304 -5 -49 22 -88 70 -103 126 -7 27 -11 227 -11 603 l0 562 215 0
215 0 0 235 0 235 -215 0 -215 0 0 340 c0 187 -3 340 -7 339 -5 0 -149 -59
-320 -131z"/>
<path d="M3419 5399 c-409 -60 -715 -311 -842 -691 -74 -222 -93 -504 -51
-775 72 -470 372 -781 834 -864 108 -20 364 -17 473 4 247 49 450 170 572 342
90 125 155 300 171 458 l7 67 -288 -2 -287 -3 -19 -73 c-24 -97 -61 -161 -126
-223 -95 -90 -221 -126 -354 -101 -248 47 -369 270 -369 682 0 395 120 624
360 686 84 21 181 14 254 -19 98 -45 166 -134 202 -266 l17 -61 300 0 299 0
-7 58 c-52 438 -350 724 -815 781 -97 13 -249 12 -331 0z"/>
<path d="M5748 5395 c-484 -79 -805 -426 -873 -942 -47 -361 16 -728 167 -958
133 -204 330 -341 583 -405 244 -62 543 -46 760 40 312 124 508 393 550 753
l6 57 -289 0 -289 0 -12 -57 c-33 -148 -134 -280 -247 -323 -208 -77 -432 5
-524 195 -64 129 -74 194 -74 465 0 240 0 247 28 335 15 49 39 112 54 139 101
186 308 268 504 200 96 -32 183 -139 219 -269 l16 -60 302 -3 c165 -1 301 -1
301 2 0 2 -7 43 -15 92 -67 391 -302 636 -695 725 -115 26 -354 34 -472 14z"/>
<path d="M8132 5399 c-164 -21 -349 -92 -476 -183 -130 -93 -259 -252 -326
-401 -79 -176 -110 -345 -110 -600 0 -278 31 -438 120 -621 160 -330 465 -515
890 -540 270 -16 555 53 737 177 178 121 312 319 357 527 l8 32 -294 0 -293 0
-33 -65 c-41 -79 -103 -137 -190 -178 -65 -31 -72 -32 -197 -32 -112 0 -138 3
-187 23 -154 62 -256 236 -282 480 l-5 52 741 0 740 0 -5 243 c-5 250 -14 319
-59 460 -87 276 -287 478 -566 573 -165 56 -388 77 -570 53z m238 -440 c87
-14 140 -39 198 -93 74 -70 120 -181 135 -328 l5 -48 -419 0 -419 0 0 23 c0
35 38 165 66 223 63 134 196 221 354 233 8 0 44 -4 80 -10z"/>
<path d="M18602 5399 c-338 -44 -615 -231 -771 -521 -140 -258 -185 -661 -115
-1011 43 -217 155 -424 296 -552 215 -194 541 -289 886 -257 452 41 758 264
888 646 13 38 24 74 24 80 0 8 -89 10 -293 8 l-294 -3 -22 -49 c-35 -78 -102
-144 -187 -187 -69 -34 -83 -37 -183 -41 -162 -7 -263 29 -350 123 -78 84
-119 198 -145 398 l-5 37 736 0 735 0 -5 243 c-4 161 -11 267 -21 317 -79 378
-299 627 -642 729 -153 45 -368 62 -532 40z m231 -439 c130 -19 224 -85 281
-199 31 -61 56 -159 56 -223 l0 -48 -425 0 -424 0 6 33 c12 62 54 182 80 227
65 111 175 190 291 210 65 11 59 11 135 0z"/>
<path d="M1045 5389 c-450 -55 -734 -296 -794 -676 l-8 -53 303 0 304 0 0 23
c0 42 30 114 66 155 55 65 127 94 244 100 134 6 196 -13 267 -84 64 -64 82
-118 90 -266 l6 -108 -149 0 c-186 0 -403 -15 -513 -36 -368 -68 -594 -245
-668 -524 -24 -90 -24 -310 1 -400 55 -201 201 -353 406 -420 79 -25 233 -50
316 -50 217 0 437 94 572 246 l52 58 0 -127 0 -127 310 0 310 0 0 754 c0 784
-5 905 -42 1024 -52 171 -158 302 -318 394 -66 38 -207 85 -307 103 -112 19
-344 27 -448 14z m474 -1481 c-4 -143 -6 -157 -32 -209 -52 -107 -155 -176
-305 -206 -148 -29 -292 18 -348 114 -22 37 -29 62 -32 127 -6 111 9 158 67
216 82 82 193 106 495 109 l158 1 -3 -152z"/>
<path d="M10940 5394 c-178 -22 -332 -89 -442 -192 -39 -37 -89 -94 -110 -126
l-38 -59 0 166 0 167 -315 0 -315 0 0 -1125 0 -1125 315 0 314 0 3 743 c3 736
3 742 25 800 63 166 186 248 373 248 152 -1 243 -48 294 -154 42 -86 46 -172
46 -929 l0 -708 315 0 315 0 0 819 c0 886 -1 910 -55 1059 -36 101 -71 157
-143 234 -71 75 -176 135 -287 163 -61 16 -232 27 -295 19z"/>
<path d="M17299 5355 c-73 -15 -153 -46 -214 -84 -93 -57 -209 -191 -255 -294
l-20 -42 0 208 0 207 -320 0 -320 0 0 -1130 0 -1130 320 0 319 0 3 648 c3 637
3 648 25 705 45 120 131 201 267 252 77 29 229 55 324 55 l62 0 0 310 0 310
-62 -1 c-35 0 -93 -7 -129 -14z"/>
<path d="M13712 4493 c3 -852 3 -859 26 -937 39 -139 85 -222 176 -312 138
-138 272 -188 506 -187 157 0 248 20 358 78 120 63 189 127 284 265 16 24 17
18 17 -137 l1 -163 310 0 310 0 0 1125 0 1125 -320 0 -320 0 0 -747 c0 -795 0
-785 -48 -879 -110 -214 -477 -263 -599 -80 -70 103 -67 67 -71 929 l-3 777
-315 0 -315 0 3 -857z"/>
</g>
</svg>
